<svg width="30" height="30" viewBox="0 0 30 30" fill="none" xmlns="http://www.w3.org/2000/svg">
<g clip-path="url(#clip0_24394_10915)">
<path fill-rule="evenodd" clip-rule="evenodd" d="M14.9843 2.74988C11.7528 2.74988 9.10831 2.74988 6.00001 3.20649C3.36268 3.59317 1.53601 5.90525 1.53601 8.5V16.0124C1.53601 18.6072 3.36268 21.1133 6.00001 21.5C6.69318 21.602 7.20128 21.6245 7.74762 21.6487C8.12291 21.6653 8.51625 21.6827 9.00001 21.7272V27.0007C9.00019 27.1984 9.05893 27.3916 9.16882 27.5559C9.27872 27.7201 9.43483 27.8482 9.61745 27.9238C9.80007 27.9994 10.001 28.0192 10.1949 27.9807C10.3887 27.9422 10.5668 27.8471 10.7067 27.7074L16.2853 22.1299C16.3801 22.0366 16.507 21.9832 16.64 21.9806C16.796 21.9767 16.9501 21.9729 17.1025 21.9692C19.5651 21.9089 21.6001 21.8591 24.036 21.5C26.6733 21.1133 28.5 18.6085 28.5 16.0124V8.5C28.5 5.90391 26.6733 3.59317 24.036 3.20649C20.9124 2.74799 18.2491 2.74884 15.1026 2.74985L14.9843 2.74988ZM14.9305 8.73911C14.5769 8.73911 14.2377 8.88349 13.9877 9.14049C13.7376 9.39748 13.6667 9.68229 13.6667 10.0457C13.6667 10.4092 13.5262 10.7577 13.2762 11.0147C13.0261 11.2717 12.687 11.4161 12.3334 11.4161C11.9797 11.4161 11.6406 11.2717 11.3905 11.0147C11.1405 10.7577 11 10.4092 11 10.0457C11.0003 9.32015 11.1178 8.67132 11.4728 8.04412C11.8277 7.41692 12.3379 6.89744 12.9514 6.53845C13.5649 6.17945 14.26 5.99374 14.9659 6.00016C15.6719 6.00658 16.3636 6.20492 16.9708 6.57502C17.5781 6.94512 18.0792 7.4738 18.4233 8.10736C18.7674 8.74093 19.0118 9.39305 18.9996 10.1185C18.9873 10.844 18.7885 11.5532 18.4233 12.1742C18.0581 12.7951 17.5395 13.3057 16.9201 13.6539C16.8583 13.6865 16.7984 13.7107 16.7406 13.7341C16.62 13.7829 16.5088 13.8279 16.4094 13.9365C16.3779 13.9706 16.3522 14.01 16.3334 14.053L16.3201 14.3994C16.3201 14.7628 16.1796 15.1114 15.9296 15.3684C15.6795 15.6254 15.3404 15.7698 14.9867 15.7698C14.6331 15.7698 14.294 15.6254 14.0439 15.3684C13.7939 15.1114 13.6534 14.7628 13.6534 14.3994L13.6667 14.0447C13.6667 13.2499 14.0187 12.7221 14.4001 12.2657C14.7747 11.8135 15.2254 11.4819 15.6388 11.2489C15.899 11.1031 16.1045 10.8724 16.2229 10.5932C16.3413 10.314 16.3658 10.0022 16.2925 9.70705C16.2193 9.41192 16.0841 9.20601 15.8501 9.01918C15.616 8.83235 15.2269 8.73901 14.9305 8.73911ZM14.9734 16.2592C14.6198 16.2592 14.2806 16.4036 14.0306 16.6606C13.7805 16.9176 13.6401 17.2662 13.6401 17.6296C13.6401 17.9931 13.7805 18.3416 14.0306 18.5986C14.2806 18.8556 14.6198 19 14.9734 19H14.9867C15.3404 19 15.6795 18.8556 15.9296 18.5986C16.1796 18.3416 16.3201 17.9931 16.3201 17.6296C16.3201 17.2662 16.1796 16.9176 15.9296 16.6606C15.6795 16.4036 15.3404 16.2592 14.9867 16.2592H14.9734Z" fill="#68697B"/>
</g>
<defs>
<clipPath id="clip0_24394_10915">
<rect width="30" height="30" fill="white"/>
</clipPath>
</defs>
</svg>
