<svg width="20" height="20" viewBox="0 0 20 20" fill="none" xmlns="http://www.w3.org/2000/svg">
<path d="M12.8223 5.05273L11.8262 6.04883L10.6973 4.91992V12.8223H9.30273V4.91992L8.17383 6.04883L7.17773 5.05273L10 2.19727L12.8223 5.05273ZM15.6777 8.57227V16.375C15.6777 16.7734 15.5339 17.1165 15.2461 17.4043C14.9805 17.6699 14.6484 17.8027 14.25 17.8027H5.75C5.35156 17.8027 5.00846 17.6699 4.7207 17.4043C4.45508 17.1165 4.32227 16.7734 4.32227 16.375V8.57227C4.32227 8.19596 4.45508 7.875 4.7207 7.60938C5.00846 7.32161 5.35156 7.17773 5.75 7.17773H7.875V8.57227H5.75V16.375H14.25V8.57227H12.125V7.17773H14.25C14.6484 7.17773 14.9805 7.32161 15.2461 7.60938C15.5339 7.875 15.6777 8.19596 15.6777 8.57227Z" fill="#93939F"/>
</svg>
